<svg width="100" height="51" viewBox="0 0 100 51" xmlns="http://www.w3.org/2000/svg"><title>pro trener</title><path d="M14.703 10.096l-3.248 3.277H4.901V21H1.566V.7h9.889l3.248 3.277v6.119zM4.901 4.035v6.322h5.162l1.305-1.305V5.34l-1.305-1.305H4.901zm26.614-.319v5.771l-3.074 3.074h-.812L31.37 21h-3.422l-3.683-8.439h-2.32V21H18.61V.7h9.918l2.987 3.016zm-9.57.348v5.597h5.075l1.16-1.16V5.224l-1.16-1.16h-5.075zm27.31 13.543L45.833 21h-6.757l-3.393-3.393V3.977L38.931.7h7.076l3.248 3.277v13.63zM40.323 4.035L39.018 5.34v10.933l1.363 1.421h4.147l1.392-1.421V5.34l-1.334-1.305h-4.263zM14.326 33.861H9.019V51H5.684V33.861H.348V30.7h13.978v3.161zm16.319-.145v5.771l-3.074 3.074h-.812L30.5 51h-3.422l-3.683-8.439h-2.32V51H17.74V30.7h9.918l2.987 3.016zm-9.57.348v5.597h5.075l1.16-1.16v-3.277l-1.16-1.16h-5.075zm26.469-.029h-9.135v5.075h6.467v2.726h-6.467v5.858h9.164V51H35.074V30.7h12.47v3.335zM65.342 51h-3.248l-7.54-15.138V51h-2.871V30.7h4.002l6.786 13.949V30.7h2.871V51zm17.131-16.965h-9.135v5.075h6.467v2.726h-6.467v5.858h9.164V51H70.003V30.7h12.47v3.335zm17.044-.319v5.771l-3.074 3.074h-.812L99.372 51H95.95l-3.683-8.439h-2.32V51h-3.335V30.7h9.918l2.987 3.016zm-9.57.348v5.597h5.075l1.16-1.16v-3.277l-1.16-1.16h-5.075z" fill="#FFF" fill-rule="evenodd"/></svg>