<svg xmlns="http://www.w3.org/2000/svg" viewBox="0 0 47.86 40.98"><title>laurel</title><path d="M24,41c0-.24,0-.47,0-.69a23,23,0,0,1-9.86-2.41c-.12.21-.24.4-.35.61A23.54,23.54,0,0,0,24,41" fill="#d80e1c"/><path d="M3,15.15a7.19,7.19,0,0,0-1.24-2.51l-.38-.49c-.22.56-.4,1.07-.56,1.59a6.94,6.94,0,0,0,.34,5.34,4.77,4.77,0,0,0,2.19,2c0-.31,0-.59,0-.86A14.71,14.71,0,0,0,3,15.15" fill="#d80e1c"/><path d="M4.11,14.45c.11-.3.22-.58.33-.86a17.1,17.1,0,0,0,1-3.09,8.91,8.91,0,0,0-.27-5.16c-.24.26-.46.5-.66.75A7.94,7.94,0,0,0,2.73,9.55a5,5,0,0,0,1.38,4.9" fill="#d80e1c"/><path d="M12.66,37.72c-.65-.49-1.3-1-2-1.44a13.15,13.15,0,0,0-3.53-1.67,7.75,7.75,0,0,0-2.67-.2,15.78,15.78,0,0,0,1,1.38,7.27,7.27,0,0,0,4.94,2.9A4.7,4.7,0,0,0,13.07,38l-.41-.3" fill="#d80e1c"/><path d="M7,8.37l.61-.7A26.6,26.6,0,0,0,9.38,5.46a10.19,10.19,0,0,0,2-4.26c.06-.39.09-.78.16-1.2-.41.2-.75.36-1.06.55A8.3,8.3,0,0,0,7.05,3.88,4.73,4.73,0,0,0,7,8.37" fill="#d80e1c"/><path d="M7.87,33.51a.34.34,0,0,0,0-.08c-.15-.22-.29-.44-.43-.67A14.66,14.66,0,0,0,4.26,29a5.23,5.23,0,0,0-1.67-1,14.34,14.34,0,0,1-1.44-.57l0,.09c.13.53.28,1.07.45,1.59a7.12,7.12,0,0,0,2.86,3.83,4.7,4.7,0,0,0,3.44.62" fill="#d80e1c"/><path d="M.06,19.78c0,.36-.06.69-.06,1A8.4,8.4,0,0,0,.45,24a6.24,6.24,0,0,0,2.08,2.91,4.9,4.9,0,0,0,2.1.77c-.08-.31-.16-.59-.22-.86a14.86,14.86,0,0,0-1.48-4,8.19,8.19,0,0,0-2.87-3" fill="#d80e1c"/><path d="M3.83,20.23c0,.27,0,.54.08.84a7.5,7.5,0,0,0,2.2-1.71,8.59,8.59,0,0,0,1.72-3.63c.09-.37.17-.74.28-1.15l-.57.06A4,4,0,0,0,5.3,15.72a5.53,5.53,0,0,0-1.47,4.51" fill="#d80e1c"/><path d="M8.7,12.56a12,12,0,0,0,1.68-2.2c.12-.19.24-.39.38-.59A4.33,4.33,0,0,0,6.32,11a5.83,5.83,0,0,0-1.47,2.76c-.07.29-.14.58-.2.88a7.29,7.29,0,0,0,4-2" fill="#d80e1c"/><path d="M10.28,30.27a4.57,4.57,0,0,0-.74,2.33A5,5,0,0,0,11,35.91a6.83,6.83,0,0,0,1.94,1.4l.45.23a9.3,9.3,0,0,0-.2-2.59,9.08,9.08,0,0,0-2.13-3.79c-.25-.28-.5-.56-.77-.89" fill="#d80e1c"/><path d="M7.94,7.93a7.87,7.87,0,0,0-.49.77,7.4,7.4,0,0,0,4.12-.46,15.54,15.54,0,0,0,3-1.76c.2-.15.41-.31.67-.49-.35-.18-.67-.36-1-.51A4.81,4.81,0,0,0,9.92,6a7,7,0,0,0-2,1.93" fill="#d80e1c"/><path d="M7.93,25.38l-.08,0c-.31.35-.6.72-.91,1.08A3.24,3.24,0,0,0,6.3,28.1a5.81,5.81,0,0,0,1.46,4.4c.16.2.34.39.52.58,0,0,0,0,.07,0a7.49,7.49,0,0,0,.74-3.18,9.31,9.31,0,0,0-.72-3.49c-.16-.35-.31-.71-.44-1.07" fill="#d80e1c"/><path d="M5.16,27.46a8.73,8.73,0,0,0,1.28-1.75A8.39,8.39,0,0,0,7.27,23a10.32,10.32,0,0,0,0-2.29c0-.22-.05-.45-.07-.7a4.21,4.21,0,0,0-2.58,2.65,6,6,0,0,0,.24,4.05c.1.25.21.52.34.8" fill="#d80e1c"/><path d="M19.91.57c-3.53-.64-7.79.87-9.27,4.29A28,28,0,0,0,19.91.57" fill="#d80e1c"/><path d="M23.9,41c0-.24,0-.47,0-.69a23,23,0,0,0,9.86-2.41l.35.61A23.54,23.54,0,0,1,23.9,41" fill="#d80e1c"/><path d="M44.86,15.15a7.19,7.19,0,0,1,1.24-2.51l.38-.49c.22.56.41,1.07.56,1.59a6.94,6.94,0,0,1-.34,5.34,4.77,4.77,0,0,1-2.19,2c0-.31,0-.59,0-.86a14.71,14.71,0,0,1,.39-5.08" fill="#d80e1c"/><path d="M43.75,14.45c-.11-.3-.22-.58-.33-.86a17.1,17.1,0,0,1-1-3.09,8.91,8.91,0,0,1,.27-5.16c.24.26.46.5.67.75a8,8,0,0,1,1.76,3.46,5,5,0,0,1-1.38,4.9" fill="#d80e1c"/><path d="M35.2,37.72c.65-.49,1.31-1,2-1.44a13.3,13.3,0,0,1,3.53-1.67,7.79,7.79,0,0,1,2.68-.2c-.33.5-.63,1-1,1.38a7.27,7.27,0,0,1-4.94,2.9A4.7,4.7,0,0,1,34.79,38l.41-.3" fill="#d80e1c"/><path d="M40.88,8.37l-.61-.7a26.6,26.6,0,0,1-1.79-2.21,10.19,10.19,0,0,1-2-4.26c-.06-.39-.09-.78-.16-1.2.41.2.75.36,1.06.55a8.3,8.3,0,0,1,3.39,3.33,4.71,4.71,0,0,1,.07,4.49" fill="#d80e1c"/><path d="M40,33.51a.34.34,0,0,1,0-.08c.15-.22.29-.44.43-.67A14.66,14.66,0,0,1,43.6,29a5.23,5.23,0,0,1,1.67-1,14.34,14.34,0,0,0,1.44-.57l0,.09c-.13.53-.28,1.07-.45,1.59a7.12,7.12,0,0,1-2.86,3.83,4.7,4.7,0,0,1-3.44.62" fill="#d80e1c"/><path d="M47.8,19.78c0,.36.06.69.06,1A8.4,8.4,0,0,1,47.41,24a6.24,6.24,0,0,1-2.08,2.91,4.9,4.9,0,0,1-2.1.77c.09-.31.16-.59.22-.86a14.86,14.86,0,0,1,1.48-4,8.19,8.19,0,0,1,2.87-3" fill="#d80e1c"/><path d="M44,20.23c0,.27,0,.54-.08.84a7.5,7.5,0,0,1-2.2-1.71A8.59,8.59,0,0,1,40,15.73c-.08-.37-.17-.74-.28-1.15l.57.06a4,4,0,0,1,2.24,1.08A5.53,5.53,0,0,1,44,20.23" fill="#d80e1c"/><path d="M39.16,12.56a12,12,0,0,1-1.68-2.2c-.12-.19-.24-.39-.38-.59A4.33,4.33,0,0,1,41.54,11,5.83,5.83,0,0,1,43,13.73c.08.29.14.58.2.88a7.29,7.29,0,0,1-4.05-2" fill="#d80e1c"/><path d="M37.58,30.27a4.57,4.57,0,0,1,.74,2.33,5,5,0,0,1-1.45,3.31,6.83,6.83,0,0,1-1.94,1.4l-.45.23a9.3,9.3,0,0,1,.2-2.59,9.08,9.08,0,0,1,2.13-3.79c.25-.28.5-.56.77-.89" fill="#d80e1c"/><path d="M39.92,7.93a7.87,7.87,0,0,1,.49.77,7.4,7.4,0,0,1-4.12-.46,15.16,15.16,0,0,1-3-1.76L32.63,6c.35-.18.67-.36,1-.51A4.81,4.81,0,0,1,37.94,6a6.86,6.86,0,0,1,2,1.93" fill="#d80e1c"/><path d="M39.93,25.38l.08,0c.31.35.6.72.91,1.08a3.24,3.24,0,0,1,.64,1.68,5.81,5.81,0,0,1-1.46,4.4c-.16.2-.34.39-.52.58,0,0,0,0-.06,0a7.35,7.35,0,0,1-.75-3.18,9.32,9.32,0,0,1,.73-3.49c.15-.35.3-.71.43-1.07" fill="#d80e1c"/><path d="M42.7,27.46a8.73,8.73,0,0,1-1.28-1.75A8.39,8.39,0,0,1,40.59,23a10.32,10.32,0,0,1,0-2.29c0-.22,0-.45.07-.7a4.21,4.21,0,0,1,2.58,2.65A6,6,0,0,1,43,26.66c-.1.25-.21.52-.34.8" fill="#d80e1c"/><path d="M28,.57c3.52-.64,7.79.87,9.26,4.29A27.85,27.85,0,0,1,28,.57" fill="#d80e1c"/></svg>