<svg xmlns="http://www.w3.org/2000/svg" viewBox="0 0 22 12"><title>vk</title><path d="M21.81,10.7a11,11,0,0,0-2.19-2.42l0,0c-.51-.46-.82-.76-.95-.91a.81.81,0,0,1-.16-.89,7.78,7.78,0,0,1,1-1.43l.74-.93C21.57,2.41,22.14,1.33,22,.87L21.9.76a.62.62,0,0,0-.35-.18,1.76,1.76,0,0,0-.74,0l-3.3,0a.37.37,0,0,0-.23,0l-.14,0-.06,0,0,0a.4.4,0,0,0-.12.11.67.67,0,0,0-.12.2,18.78,18.78,0,0,1-1.22,2.46c-.29.45-.55.85-.78,1.18a6.32,6.32,0,0,1-.6.73,4.35,4.35,0,0,1-.43.38.48.48,0,0,1-.3.12l-.2,0A.81.81,0,0,1,13,5.54a1.28,1.28,0,0,1-.14-.43c0-.17,0-.32,0-.44s0-.3,0-.53,0-.38,0-.46c0-.28,0-.58,0-.9s0-.58,0-.77,0-.39,0-.61a2.13,2.13,0,0,0,0-.49,2.17,2.17,0,0,0-.12-.36.55.55,0,0,0-.24-.26,1.5,1.5,0,0,0-.38-.15A8.84,8.84,0,0,0,10.58,0,7.91,7.91,0,0,0,7.85.26a1.54,1.54,0,0,0-.44.33Q7.2.83,7.35.86a1.41,1.41,0,0,1,1,.47l.07.13a2.44,2.44,0,0,1,.16.5,6,6,0,0,1,.1.8,7.78,7.78,0,0,1,0,1.37c0,.38-.07.68-.11.89a1.83,1.83,0,0,1-.15.51l-.14.24a.17.17,0,0,1-.06.06,1.06,1.06,0,0,1-.31,0,.8.8,0,0,1-.39-.15A2.5,2.5,0,0,1,7,5.31a5.59,5.59,0,0,1-.56-.75c-.2-.32-.42-.7-.64-1.14L5.65,3.1c-.12-.2-.27-.5-.47-.89s-.38-.77-.53-1.14A.74.74,0,0,0,4.38.72l-.06,0A.74.74,0,0,0,4.14.6,1.34,1.34,0,0,0,3.87.53L.73.55A.8.8,0,0,0,.08.76L0,.82A.42.42,0,0,0,0,1a.71.71,0,0,0,.07.29c.46,1,1,2,1.49,3S2.57,6,3,6.58s.8,1.14,1.21,1.66.69.85.82,1,.24.26.31.33l.29.26a5.48,5.48,0,0,0,.81.63,12.68,12.68,0,0,0,1.18.73,6.9,6.9,0,0,0,1.5.58,5.48,5.48,0,0,0,1.68.18h1.31a.92.92,0,0,0,.61-.24l.05-.06a.55.55,0,0,0,.08-.2,1,1,0,0,0,0-.3,3.67,3.67,0,0,1,.08-.85,2.09,2.09,0,0,1,.19-.57,1.42,1.42,0,0,1,.25-.32,1.28,1.28,0,0,1,.19-.16l.09,0a.75.75,0,0,1,.65.17A3.47,3.47,0,0,1,15,10c.22.25.48.53.79.84a4.56,4.56,0,0,0,.8.7l.23.14a4,4,0,0,0,.59.24,1.33,1.33,0,0,0,.64.05l2.94,0a1.36,1.36,0,0,0,.67-.14.55.55,0,0,0,.29-.3.77.77,0,0,0,0-.37.87.87,0,0,0-.08-.29A.91.91,0,0,0,21.81,10.7Z" fill="#fff"/></svg>