<svg xmlns="http://www.w3.org/2000/svg"><symbol id="icon_close" viewBox="0 0 17.41 17.41"><path d="M8.71 7.29L16 0l1.41 1.41-7.29 7.3L17.41 16 16 17.41l-7.29-7.29-7.3 7.29L0 16l7.29-7.29L0 1.41 1.41 0z"/></symbol><symbol id="icon_plus" viewBox="0 0 16 16"><path d="M9 7h7v2H9v7H7V9H0V7h7V0h2z"/></symbol><symbol id="icon_pluslg" viewBox="0 0 19 19"><path d="M8 8V0h3v8h8v3h-8v8H8v-8H0V8z"/></symbol><symbol id="icon_refresh" viewBox="0 0 612.035 612.035"><path d="M323.128 56.236l5.646-9.57 40.17-40.169C271.247-13.921 165.482 13.786 89.65 89.646-16.421 195.717-28.355 360.261 53.875 479.49L10.98 522.386l137.7 19.667-19.667-137.7-34.968 34.967c-60.978-96.724-49.322-226.078 34.94-310.34 53.244-53.243 124.486-77.501 194.143-72.744zm258.264 13.743l-137.7-19.667 19.668 137.7 38.25-38.25c78.726 98.31 72.521 242.186-18.583 333.317-61.116 61.117-145.989 84.039-224.882 68.739l-45.65 45.649c105.654 33.799 226.05 8.791 309.895-75.054 112.858-112.858 119.146-291.979 18.805-412.209l40.197-40.225z"/></symbol><symbol id="icon_rub" viewBox="0 0 12 18"><path d="M6 10H4v3h4v2H4v3H2v-3H0v-2h2v-3H0V8h2V0h7a3 3 0 0 1 3 3v4a3 3 0 0 1-3 3zM4 2v6h5a1 1 0 0 0 1-1V3a1 1 0 0 0-1-1z"/></symbol><symbol id="icon_search" viewBox="0 0 16 16"><path d="M12.6 11.2l.11.09 3 3a1 1 0 0 1-1.42 1.42l-3-3-.09-.11a7 7 0 1 1 1.4-1.4zM7 12a5 5 0 1 0-5-5 5 5 0 0 0 5 5z"/></symbol><symbol id="icon_star" viewBox="0 0 39 37"><path fill-rule="evenodd" d="M19.5 2.501l5.603 10.056 11.395 2.166-7.933 8.382 1.44 11.394L19.5 29.623 8.995 34.499l1.439-11.394-7.932-8.382 11.395-2.166L19.5 2.501"/></symbol><symbol id="icon_triangle" viewBox="0 0 8 6"><path d="M0 0l4 6 4-6H0z"/></symbol><symbol id="icon_upload" viewBox="0 0 20 20.41"><path d="M11 3.83v10.58H9V3.83L5.71 7.12 4.29 5.71 10 0l5.71 5.71-1.42 1.41zM0 18.41h20v2H0z"/></symbol></svg>