<svg xmlns="http://www.w3.org/2000/svg"><symbol id="icon_arrow" viewBox="0 0 15.41 16.41"><path d="M6.71 3.83l-5.3 5.29L0 7.71 7.71 0l7.7 7.71L14 9.12 8.71 3.83v12.58h-2z"/></symbol><symbol id="icon_close" viewBox="0 0 17.41 17.41"><path d="M8.71 7.29L16 0l1.41 1.41-7.29 7.3L17.41 16 16 17.41l-7.29-7.29-7.3 7.29L0 16l7.29-7.29L0 1.41 1.41 0z"/></symbol><symbol id="icon_laurel" viewBox="0 0 47.86 40.98"><path d="M24 41v-.69a23 23 0 0 1-9.86-2.41c-.12.21-.24.4-.35.61A23.54 23.54 0 0 0 24 41M3 15.15a7.19 7.19 0 0 0-1.24-2.51l-.38-.49c-.22.56-.4 1.07-.56 1.59a6.94 6.94 0 0 0 .34 5.34 4.77 4.77 0 0 0 2.19 2v-.86A14.71 14.71 0 0 0 3 15.15m1.11-.7c.11-.3.22-.58.33-.86a17.1 17.1 0 0 0 1-3.09 8.91 8.91 0 0 0-.27-5.16c-.24.26-.46.5-.66.75a7.94 7.94 0 0 0-1.78 3.46 5 5 0 0 0 1.38 4.9m8.55 23.27c-.65-.49-1.3-1-2-1.44a13.15 13.15 0 0 0-3.53-1.67 7.75 7.75 0 0 0-2.67-.2 15.78 15.78 0 0 0 1 1.38 7.27 7.27 0 0 0 4.94 2.9 4.7 4.7 0 0 0 2.67-.69l-.41-.3M7 8.37l.61-.7a26.6 26.6 0 0 0 1.77-2.21 10.19 10.19 0 0 0 2-4.26c.06-.39.09-.78.16-1.2-.41.2-.75.36-1.06.55a8.3 8.3 0 0 0-3.43 3.33A4.73 4.73 0 0 0 7 8.37m.87 25.14a.34.34 0 0 0 0-.08c-.15-.22-.29-.44-.43-.67A14.66 14.66 0 0 0 4.26 29a5.23 5.23 0 0 0-1.67-1 14.34 14.34 0 0 1-1.44-.57v.09c.13.53.28 1.07.45 1.59a7.12 7.12 0 0 0 2.86 3.83 4.7 4.7 0 0 0 3.44.62M.06 19.78c0 .36-.06.69-.06 1A8.4 8.4 0 0 0 .45 24a6.24 6.24 0 0 0 2.08 2.91 4.9 4.9 0 0 0 2.1.77c-.08-.31-.16-.59-.22-.86a14.86 14.86 0 0 0-1.48-4 8.19 8.19 0 0 0-2.87-3m3.77.41c0 .27 0 .54.08.84a7.5 7.5 0 0 0 2.2-1.71 8.59 8.59 0 0 0 1.72-3.63c.09-.37.17-.74.28-1.15l-.57.06a4 4 0 0 0-2.24 1.08 5.53 5.53 0 0 0-1.47 4.51m4.87-7.67a12 12 0 0 0 1.68-2.2c.12-.19.24-.39.38-.59A4.33 4.33 0 0 0 6.32 11a5.83 5.83 0 0 0-1.47 2.76c-.07.29-.14.58-.2.88a7.29 7.29 0 0 0 4-2m1.63 17.63a4.57 4.57 0 0 0-.74 2.33A5 5 0 0 0 11 35.91a6.83 6.83 0 0 0 1.94 1.4l.45.23a9.3 9.3 0 0 0-.2-2.59 9.08 9.08 0 0 0-2.13-3.79c-.25-.28-.5-.56-.77-.89M7.94 7.93a7.87 7.87 0 0 0-.49.77 7.4 7.4 0 0 0 4.12-.46 15.54 15.54 0 0 0 3-1.76c.2-.15.41-.31.67-.49-.35-.18-.67-.36-1-.51A4.81 4.81 0 0 0 9.92 6a7 7 0 0 0-2 1.93m.01 17.45h-.08c-.31.35-.6.72-.91 1.08a3.24 3.24 0 0 0-.64 1.64 5.81 5.81 0 0 0 1.46 4.4c.16.2.34.39.52.58h.07a7.49 7.49 0 0 0 .74-3.18 9.31 9.31 0 0 0-.72-3.49c-.16-.35-.31-.71-.44-1.07m-2.77 2.12a8.73 8.73 0 0 0 1.28-1.75A8.39 8.39 0 0 0 7.27 23a10.32 10.32 0 0 0 0-2.29c0-.22-.05-.45-.07-.7a4.21 4.21 0 0 0-2.58 2.65 6 6 0 0 0 .24 4.05c.1.25.21.52.34.8M19.91.57c-3.53-.64-7.79.87-9.27 4.29A28 28 0 0 0 19.91.57"/><path d="M23.9 41v-.69a23 23 0 0 0 9.86-2.41l.35.61A23.54 23.54 0 0 1 23.9 41m20.96-25.85a7.19 7.19 0 0 1 1.24-2.51l.38-.49c.22.56.41 1.07.56 1.59a6.94 6.94 0 0 1-.34 5.34 4.77 4.77 0 0 1-2.19 2v-.86a14.71 14.71 0 0 1 .39-5.08m-1.15-.69c-.11-.3-.22-.58-.33-.86a17.1 17.1 0 0 1-1-3.09 8.91 8.91 0 0 1 .27-5.16c.24.26.46.5.67.75a8 8 0 0 1 1.76 3.46 5 5 0 0 1-1.38 4.9M35.2 37.72c.65-.49 1.31-1 2-1.44a13.3 13.3 0 0 1 3.53-1.67 7.79 7.79 0 0 1 2.68-.2c-.33.5-.63 1-1 1.38a7.27 7.27 0 0 1-4.94 2.9 4.7 4.7 0 0 1-2.68-.69l.41-.3m5.68-29.33l-.61-.7a26.6 26.6 0 0 1-1.79-2.21 10.19 10.19 0 0 1-2-4.26c-.06-.39-.09-.78-.16-1.2.41.2.75.36 1.06.55a8.3 8.3 0 0 1 3.39 3.33 4.71 4.71 0 0 1 .07 4.49M40 33.51a.34.34 0 0 1 0-.08c.15-.22.29-.44.43-.67A14.66 14.66 0 0 1 43.6 29a5.23 5.23 0 0 1 1.67-1 14.34 14.34 0 0 0 1.44-.57v.09c-.13.53-.28 1.07-.45 1.59a7.12 7.12 0 0 1-2.86 3.83 4.7 4.7 0 0 1-3.44.62m7.84-13.78c0 .36.06.69.06 1a8.4 8.4 0 0 1-.45 3.22 6.24 6.24 0 0 1-2.08 2.91 4.9 4.9 0 0 1-2.1.77c.09-.31.16-.59.22-.86a14.86 14.86 0 0 1 1.48-4 8.19 8.19 0 0 1 2.87-3m-3.8.41c0 .27 0 .54-.08.84a7.5 7.5 0 0 1-2.2-1.71A8.59 8.59 0 0 1 40 15.73c-.08-.37-.17-.74-.28-1.15l.57.06a4 4 0 0 1 2.24 1.08A5.53 5.53 0 0 1 44 20.23m-4.84-7.67a12 12 0 0 1-1.68-2.2c-.12-.19-.24-.39-.38-.59A4.33 4.33 0 0 1 41.54 11 5.83 5.83 0 0 1 43 13.73c.08.29.14.58.2.88a7.29 7.29 0 0 1-4.05-2m-1.57 17.66a4.57 4.57 0 0 1 .74 2.33 5 5 0 0 1-1.45 3.31 6.83 6.83 0 0 1-1.94 1.4l-.45.23a9.3 9.3 0 0 1 .2-2.59 9.08 9.08 0 0 1 2.13-3.79c.25-.28.5-.56.77-.89m2.34-22.34a7.87 7.87 0 0 1 .49.77 7.4 7.4 0 0 1-4.12-.46 15.16 15.16 0 0 1-3-1.76L32.63 6c.35-.18.67-.36 1-.51a4.81 4.81 0 0 1 4.31.51 6.86 6.86 0 0 1 2 1.93m-.01 17.45h.08c.31.35.6.72.91 1.08a3.24 3.24 0 0 1 .64 1.68 5.81 5.81 0 0 1-1.46 4.4c-.16.2-.34.39-.52.58h-.06a7.35 7.35 0 0 1-.75-3.18 9.32 9.32 0 0 1 .73-3.49c.15-.35.3-.71.43-1.07m2.77 2.08a8.73 8.73 0 0 1-1.28-1.75 8.39 8.39 0 0 1-.83-2.71 10.32 10.32 0 0 1 0-2.29c0-.22 0-.45.07-.7a4.21 4.21 0 0 1 2.58 2.65 6 6 0 0 1-.24 4c-.1.25-.21.52-.34.8M28 .57c3.52-.64 7.79.87 9.26 4.29A27.85 27.85 0 0 1 28 .57"/></symbol><symbol id="icon_plus" viewBox="0 0 16 16"><path d="M9 7h7v2H9v7H7V9H0V7h7V0h2z"/></symbol><symbol id="icon_pluslg" viewBox="0 0 19 19"><path d="M8 8V0h3v8h8v3h-8v8H8v-8H0V8z"/></symbol><symbol id="icon_refresh" viewBox="0 0 612.035 612.035"><path d="M323.128 56.236l5.646-9.57 40.17-40.169C271.247-13.921 165.482 13.786 89.65 89.646-16.421 195.717-28.355 360.261 53.875 479.49L10.98 522.386l137.7 19.667-19.667-137.7-34.968 34.967c-60.978-96.724-49.322-226.078 34.94-310.34 53.244-53.243 124.486-77.501 194.143-72.744zm258.264 13.743l-137.7-19.667 19.668 137.7 38.25-38.25c78.726 98.31 72.521 242.186-18.583 333.317-61.116 61.117-145.989 84.039-224.882 68.739l-45.65 45.649c105.654 33.799 226.05 8.791 309.895-75.054 112.858-112.858 119.146-291.979 18.805-412.209l40.197-40.225z"/></symbol><symbol id="icon_rub" viewBox="0 0 12 18"><path d="M6 10H4v3h4v2H4v3H2v-3H0v-2h2v-3H0V8h2V0h7a3 3 0 0 1 3 3v4a3 3 0 0 1-3 3zM4 2v6h5a1 1 0 0 0 1-1V3a1 1 0 0 0-1-1z"/></symbol><symbol id="icon_search" viewBox="0 0 16 16"><path d="M12.6 11.2l.11.09 3 3a1 1 0 0 1-1.42 1.42l-3-3-.09-.11a7 7 0 1 1 1.4-1.4zM7 12a5 5 0 1 0-5-5 5 5 0 0 0 5 5z"/></symbol><symbol id="icon_star" viewBox="0 0 39 37"><path fill-rule="evenodd" d="M19.5 2.501l5.603 10.056 11.395 2.166-7.933 8.382 1.44 11.394L19.5 29.623 8.995 34.499l1.439-11.394-7.932-8.382 11.395-2.166L19.5 2.501"/></symbol><symbol id="icon_triangle" viewBox="0 0 8 6"><path d="M0 0l4 6 4-6H0z"/></symbol><symbol id="icon_upload" viewBox="0 0 20 20.41"><path d="M11 3.83v10.58H9V3.83L5.71 7.12 4.29 5.71 10 0l5.71 5.71-1.42 1.41zM0 18.41h20v2H0z"/></symbol></svg>