<?xml version="1.0" encoding="UTF-8"?>
<svg width="100px" height="51px" viewBox="0 0 100 51" version="1.1" xmlns="http://www.w3.org/2000/svg" xmlns:xlink="http://www.w3.org/1999/xlink">
    <!-- Generator: Sketch 48.2 (47327) - http://www.bohemiancoding.com/sketch -->
    <title>pro trener</title>
    <desc>Created with Sketch.</desc>
    <defs></defs>
    <g id="Main-page-(1)-1440" stroke="none" stroke-width="1" fill="none" fill-rule="evenodd" transform="translate(-45.000000, -56.000000)">
        <g id="nav" transform="translate(45.000000, 51.000000)" fill="#FFFFFF">
            <path d="M14.703,15.096 L11.455,18.373 L4.901,18.373 L4.901,26 L1.566,26 L1.566,5.7 L11.455,5.7 L14.703,8.977 L14.703,15.096 Z M4.901,9.035 L4.901,15.357 L10.063,15.357 L11.368,14.052 L11.368,10.34 L10.063,9.035 L4.901,9.035 Z M31.515,8.716 L31.515,14.487 L28.441,17.561 L27.629,17.561 L31.37,26 L27.948,26 L24.265,17.561 L21.945,17.561 L21.945,26 L18.61,26 L18.61,5.7 L28.528,5.7 L31.515,8.716 Z M21.945,9.064 L21.945,14.661 L27.02,14.661 L28.18,13.501 L28.18,10.224 L27.02,9.064 L21.945,9.064 Z M49.255,22.607 L45.833,26 L39.076,26 L35.683,22.607 L35.683,8.977 L38.931,5.7 L46.007,5.7 L49.255,8.977 L49.255,22.607 Z M40.323,9.035 L39.018,10.34 L39.018,21.273 L40.381,22.694 L44.528,22.694 L45.92,21.273 L45.92,10.34 L44.586,9.035 L40.323,9.035 Z M14.326,38.861 L9.019,38.861 L9.019,56 L5.684,56 L5.684,38.861 L0.348,38.861 L0.348,35.7 L14.326,35.7 L14.326,38.861 Z M30.645,38.716 L30.645,44.487 L27.571,47.561 L26.759,47.561 L30.5,56 L27.078,56 L23.395,47.561 L21.075,47.561 L21.075,56 L17.74,56 L17.74,35.7 L27.658,35.7 L30.645,38.716 Z M21.075,39.064 L21.075,44.661 L26.15,44.661 L27.31,43.501 L27.31,40.224 L26.15,39.064 L21.075,39.064 Z M47.544,39.035 L38.409,39.035 L38.409,44.11 L44.876,44.11 L44.876,46.836 L38.409,46.836 L38.409,52.694 L47.573,52.694 L47.573,56 L35.074,56 L35.074,35.7 L47.544,35.7 L47.544,39.035 Z M65.342,56 L62.094,56 L54.554,40.862 L54.554,56 L51.683,56 L51.683,35.7 L55.685,35.7 L62.471,49.649 L62.471,35.7 L65.342,35.7 L65.342,56 Z M82.473,39.035 L73.338,39.035 L73.338,44.11 L79.805,44.11 L79.805,46.836 L73.338,46.836 L73.338,52.694 L82.502,52.694 L82.502,56 L70.003,56 L70.003,35.7 L82.473,35.7 L82.473,39.035 Z M99.517,38.716 L99.517,44.487 L96.443,47.561 L95.631,47.561 L99.372,56 L95.95,56 L92.267,47.561 L89.947,47.561 L89.947,56 L86.612,56 L86.612,35.7 L96.53,35.7 L99.517,38.716 Z M89.947,39.064 L89.947,44.661 L95.022,44.661 L96.182,43.501 L96.182,40.224 L95.022,39.064 L89.947,39.064 Z" id="pro-trener"></path>
        </g>
    </g>
</svg>